<?xml version="1.0" encoding="UTF-8"?>
<svg id="Layer_1" data-name="Layer 1" xmlns="http://www.w3.org/2000/svg" viewBox="0 0 290 287">
  <defs>
    <style>
      .cls-1 {
        fill: #1765fc;
      }
    </style>
  </defs>
  <path class="cls-1" d="M276.96,143.99c0,72.79-59.01,131.8-131.8,131.8S13.35,216.79,13.35,143.99,72.36,12.19,145.16,12.19s131.8,59.01,131.8,131.8ZM256.19,144.04c0-61.33-49.72-111.05-111.05-111.05s-111.05,49.72-111.05,111.05,49.72,111.05,111.05,111.05,111.05-49.72,111.05-111.05Z"/>
  <path class="cls-1" d="M172.69,174.69c-1.81,1.39-3.96,2.24-5.93,3.36-7.97,4.53-18.81,8.38-27.57,11.85-10.75,4.26-21.38,8.48-31.44,12.39-4.74,1.84-18.15,7.46-22.22,6.71-3.34-.62-8.19-7.36-7.15-11.01l33.68-80.42,85.12-36.88c3.16-1.79,8.87.18,10.3,3.33,2.73,6.02-2.99,12.08-4.98,16.99-9.88,24.39-19.54,49.28-29.81,73.69ZM151.99,164.98l-.94-3.53-25.55-25.43-18.5,44.97c8.46-.96,15.25-5.25,23.17-8.32,2.35-.91,4.67-1.81,6.62-2.58,4.96-1.94,10.11-3.56,15.19-5.12Z"/>
</svg>